<mxfile host="app.diagrams.net" modified="2022-10-13T14:21:31.122Z" agent="5.0 (Macintosh; Intel Mac OS X 10_15_7) AppleWebKit/537.36 (KHTML, like Gecko) Chrome/106.0.0.0 Safari/537.36" etag="d0nFbbpz7wstr94BdutD" version="20.4.0" type="github">
  <diagram id="Uq_b7XZdv0_L0INY8NOg" name="第 1 页">
    <mxGraphModel dx="884" dy="1667" grid="1" gridSize="10" guides="1" tooltips="1" connect="1" arrows="1" fold="1" page="1" pageScale="1" pageWidth="827" pageHeight="1169" math="0" shadow="0">
      <root>
        <mxCell id="0" />
        <mxCell id="1" parent="0" />
        <mxCell id="xSZ6aSd0KMoqOVt4Eg6c-2" value="&lt;span style=&quot;color: rgb(10, 48, 105); font-family: ui-monospace, SFMono-Regular, &amp;quot;SF Mono&amp;quot;, Menlo, Consolas, &amp;quot;Liberation Mono&amp;quot;, monospace; font-style: normal; font-variant-ligatures: normal; font-variant-caps: normal; font-weight: 400; letter-spacing: normal; orphans: 2; text-align: start; text-indent: 0px; text-transform: none; widows: 2; word-spacing: 0px; -webkit-text-stroke-width: 0px; text-decoration-thickness: initial; text-decoration-style: initial; text-decoration-color: initial; float: none; display: inline !important;&quot;&gt;&lt;font style=&quot;font-size: 10px;&quot;&gt;&quot;Conv&quot;,&lt;br&gt;&amp;nbsp;[512, 256, 1, 1]&lt;/font&gt;&lt;/span&gt;" style="rounded=0;whiteSpace=wrap;html=1;fillColor=#d5e8d4;strokeColor=#82b366;" vertex="1" parent="1">
          <mxGeometry x="160" y="-624" width="110" height="44" as="geometry" />
        </mxCell>
        <mxCell id="xSZ6aSd0KMoqOVt4Eg6c-4" value="&lt;span style=&quot;color: rgb(10, 48, 105); font-family: ui-monospace, SFMono-Regular, &amp;quot;SF Mono&amp;quot;, Menlo, Consolas, &amp;quot;Liberation Mono&amp;quot;, monospace; font-style: normal; font-variant-ligatures: normal; font-variant-caps: normal; font-weight: 400; letter-spacing: normal; orphans: 2; text-align: start; text-indent: 0px; text-transform: none; widows: 2; word-spacing: 0px; -webkit-text-stroke-width: 0px; text-decoration-thickness: initial; text-decoration-style: initial; text-decoration-color: initial; float: none; display: inline !important;&quot;&gt;&lt;font style=&quot;font-size: 10px;&quot;&gt;&quot;Conv&quot;,&lt;br&gt;&amp;nbsp;[256, 128, 3, 1]&lt;/font&gt;&lt;/span&gt;" style="rounded=0;whiteSpace=wrap;html=1;fillColor=#d5e8d4;strokeColor=#82b366;" vertex="1" parent="1">
          <mxGeometry x="160" y="-490" width="110" height="40" as="geometry" />
        </mxCell>
        <mxCell id="xSZ6aSd0KMoqOVt4Eg6c-5" value="&lt;span style=&quot;color: rgb(10, 48, 105); font-family: ui-monospace, SFMono-Regular, &amp;quot;SF Mono&amp;quot;, Menlo, Consolas, &amp;quot;Liberation Mono&amp;quot;, monospace; font-style: normal; font-variant-ligatures: normal; font-variant-caps: normal; font-weight: 400; letter-spacing: normal; orphans: 2; text-align: start; text-indent: 0px; text-transform: none; widows: 2; word-spacing: 0px; -webkit-text-stroke-width: 0px; text-decoration-thickness: initial; text-decoration-style: initial; text-decoration-color: initial; float: none; display: inline !important;&quot;&gt;&lt;font style=&quot;font-size: 10px;&quot;&gt;&quot;Conv&quot;,&lt;br&gt;&amp;nbsp;[128, 128, 3, 1]&lt;/font&gt;&lt;/span&gt;" style="rounded=0;whiteSpace=wrap;html=1;fillColor=#d5e8d4;strokeColor=#82b366;" vertex="1" parent="1">
          <mxGeometry x="160" y="-430" width="110" height="40" as="geometry" />
        </mxCell>
        <mxCell id="xSZ6aSd0KMoqOVt4Eg6c-6" value="&lt;span style=&quot;color: rgb(10, 48, 105); font-family: ui-monospace, SFMono-Regular, &amp;quot;SF Mono&amp;quot;, Menlo, Consolas, &amp;quot;Liberation Mono&amp;quot;, monospace; font-style: normal; font-variant-ligatures: normal; font-variant-caps: normal; font-weight: 400; letter-spacing: normal; orphans: 2; text-align: start; text-indent: 0px; text-transform: none; widows: 2; word-spacing: 0px; -webkit-text-stroke-width: 0px; text-decoration-thickness: initial; text-decoration-style: initial; text-decoration-color: initial; float: none; display: inline !important;&quot;&gt;&lt;font style=&quot;font-size: 10px;&quot;&gt;&quot;Conv&quot;,&lt;br&gt;&amp;nbsp;[128, 128, 3, 1]&lt;/font&gt;&lt;/span&gt;" style="rounded=0;whiteSpace=wrap;html=1;fillColor=#d5e8d4;strokeColor=#82b366;" vertex="1" parent="1">
          <mxGeometry x="160" y="-370" width="110" height="40" as="geometry" />
        </mxCell>
        <mxCell id="xSZ6aSd0KMoqOVt4Eg6c-7" value="&lt;span style=&quot;color: rgb(10, 48, 105); font-family: ui-monospace, SFMono-Regular, &amp;quot;SF Mono&amp;quot;, Menlo, Consolas, &amp;quot;Liberation Mono&amp;quot;, monospace; font-style: normal; font-variant-ligatures: normal; font-variant-caps: normal; font-weight: 400; letter-spacing: normal; orphans: 2; text-align: start; text-indent: 0px; text-transform: none; widows: 2; word-spacing: 0px; -webkit-text-stroke-width: 0px; text-decoration-thickness: initial; text-decoration-style: initial; text-decoration-color: initial; float: none; display: inline !important;&quot;&gt;&lt;font style=&quot;font-size: 10px;&quot;&gt;&quot;Cat&quot;, &lt;br&gt;[-1, -2, -3, -4, -5, -6]&lt;/font&gt;&lt;/span&gt;" style="rounded=0;whiteSpace=wrap;html=1;fillColor=#e1d5e7;strokeColor=#9673a6;" vertex="1" parent="1">
          <mxGeometry x="160" y="-230" width="310" height="60" as="geometry" />
        </mxCell>
        <mxCell id="xSZ6aSd0KMoqOVt4Eg6c-9" value="&lt;span style=&quot;color: rgb(10, 48, 105); font-family: ui-monospace, SFMono-Regular, &amp;quot;SF Mono&amp;quot;, Menlo, Consolas, &amp;quot;Liberation Mono&amp;quot;, monospace; font-style: normal; font-variant-ligatures: normal; font-variant-caps: normal; font-weight: 400; letter-spacing: normal; orphans: 2; text-align: start; text-indent: 0px; text-transform: none; widows: 2; word-spacing: 0px; -webkit-text-stroke-width: 0px; text-decoration-thickness: initial; text-decoration-style: initial; text-decoration-color: initial; float: none; display: inline !important;&quot;&gt;&lt;font style=&quot;font-size: 10px;&quot;&gt;x&lt;br&gt;&lt;/font&gt;&lt;/span&gt;" style="rounded=0;whiteSpace=wrap;html=1;fillColor=#f5f5f5;strokeColor=#666666;fontColor=#333333;" vertex="1" parent="1">
          <mxGeometry x="80" y="-700" width="100" height="40" as="geometry" />
        </mxCell>
        <mxCell id="xSZ6aSd0KMoqOVt4Eg6c-10" value="&lt;span style=&quot;color: rgb(10, 48, 105); font-family: ui-monospace, SFMono-Regular, &amp;quot;SF Mono&amp;quot;, Menlo, Consolas, &amp;quot;Liberation Mono&amp;quot;, monospace; font-style: normal; font-variant-ligatures: normal; font-variant-caps: normal; font-weight: 400; letter-spacing: normal; orphans: 2; text-align: start; text-indent: 0px; text-transform: none; widows: 2; word-spacing: 0px; -webkit-text-stroke-width: 0px; text-decoration-thickness: initial; text-decoration-style: initial; text-decoration-color: initial; float: none; display: inline !important;&quot;&gt;&lt;font style=&quot;font-size: 10px;&quot;&gt;&quot;Conv&quot;,&lt;br&gt;&amp;nbsp;[512, 256, 1, 1]&lt;/font&gt;&lt;/span&gt;" style="rounded=0;whiteSpace=wrap;html=1;fillColor=#d5e8d4;strokeColor=#82b366;" vertex="1" parent="1">
          <mxGeometry x="160" y="-560" width="110" height="44" as="geometry" />
        </mxCell>
        <mxCell id="xSZ6aSd0KMoqOVt4Eg6c-11" value="&lt;span style=&quot;color: rgb(10, 48, 105); font-family: ui-monospace, SFMono-Regular, &amp;quot;SF Mono&amp;quot;, Menlo, Consolas, &amp;quot;Liberation Mono&amp;quot;, monospace; font-style: normal; font-variant-ligatures: normal; font-variant-caps: normal; font-weight: 400; letter-spacing: normal; orphans: 2; text-align: start; text-indent: 0px; text-transform: none; widows: 2; word-spacing: 0px; -webkit-text-stroke-width: 0px; text-decoration-thickness: initial; text-decoration-style: initial; text-decoration-color: initial; float: none; display: inline !important;&quot;&gt;&lt;font style=&quot;font-size: 10px;&quot;&gt;&quot;Conv&quot;,&lt;br&gt;&amp;nbsp;[128, 128, 3, 1]&lt;/font&gt;&lt;/span&gt;" style="rounded=0;whiteSpace=wrap;html=1;fillColor=#d5e8d4;strokeColor=#82b366;" vertex="1" parent="1">
          <mxGeometry x="160" y="-310" width="110" height="40" as="geometry" />
        </mxCell>
        <mxCell id="xSZ6aSd0KMoqOVt4Eg6c-13" value="" style="endArrow=classic;html=1;rounded=0;entryX=0;entryY=0.5;entryDx=0;entryDy=0;exitX=0.14;exitY=1.013;exitDx=0;exitDy=0;exitPerimeter=0;" edge="1" parent="1" source="xSZ6aSd0KMoqOVt4Eg6c-9" target="xSZ6aSd0KMoqOVt4Eg6c-10">
          <mxGeometry width="50" height="50" relative="1" as="geometry">
            <mxPoint x="360" y="-620" as="sourcePoint" />
            <mxPoint x="440" y="-500" as="targetPoint" />
            <Array as="points">
              <mxPoint x="94" y="-538" />
            </Array>
          </mxGeometry>
        </mxCell>
        <mxCell id="xSZ6aSd0KMoqOVt4Eg6c-14" value="" style="endArrow=classic;html=1;rounded=0;exitX=0.5;exitY=1;exitDx=0;exitDy=0;entryX=0.5;entryY=0;entryDx=0;entryDy=0;" edge="1" parent="1" source="xSZ6aSd0KMoqOVt4Eg6c-10" target="xSZ6aSd0KMoqOVt4Eg6c-4">
          <mxGeometry width="50" height="50" relative="1" as="geometry">
            <mxPoint x="390" y="-370" as="sourcePoint" />
            <mxPoint x="440" y="-420" as="targetPoint" />
          </mxGeometry>
        </mxCell>
        <mxCell id="xSZ6aSd0KMoqOVt4Eg6c-16" value="" style="endArrow=classic;html=1;rounded=0;exitX=0.5;exitY=1;exitDx=0;exitDy=0;entryX=0.5;entryY=0;entryDx=0;entryDy=0;" edge="1" parent="1" source="xSZ6aSd0KMoqOVt4Eg6c-4" target="xSZ6aSd0KMoqOVt4Eg6c-5">
          <mxGeometry width="50" height="50" relative="1" as="geometry">
            <mxPoint x="390" y="-370" as="sourcePoint" />
            <mxPoint x="440" y="-420" as="targetPoint" />
          </mxGeometry>
        </mxCell>
        <mxCell id="xSZ6aSd0KMoqOVt4Eg6c-17" value="" style="endArrow=classic;html=1;rounded=0;exitX=0.5;exitY=1;exitDx=0;exitDy=0;entryX=0.5;entryY=0;entryDx=0;entryDy=0;" edge="1" parent="1" source="xSZ6aSd0KMoqOVt4Eg6c-5" target="xSZ6aSd0KMoqOVt4Eg6c-6">
          <mxGeometry width="50" height="50" relative="1" as="geometry">
            <mxPoint x="390" y="-370" as="sourcePoint" />
            <mxPoint x="440" y="-420" as="targetPoint" />
          </mxGeometry>
        </mxCell>
        <mxCell id="xSZ6aSd0KMoqOVt4Eg6c-18" value="" style="endArrow=classic;html=1;rounded=0;exitX=0.5;exitY=1;exitDx=0;exitDy=0;entryX=0.5;entryY=0;entryDx=0;entryDy=0;" edge="1" parent="1" source="xSZ6aSd0KMoqOVt4Eg6c-6" target="xSZ6aSd0KMoqOVt4Eg6c-11">
          <mxGeometry width="50" height="50" relative="1" as="geometry">
            <mxPoint x="390" y="-370" as="sourcePoint" />
            <mxPoint x="440" y="-420" as="targetPoint" />
          </mxGeometry>
        </mxCell>
        <mxCell id="xSZ6aSd0KMoqOVt4Eg6c-19" value="" style="endArrow=classic;html=1;rounded=0;exitX=0.5;exitY=1;exitDx=0;exitDy=0;entryX=0.177;entryY=-0.008;entryDx=0;entryDy=0;entryPerimeter=0;" edge="1" parent="1" source="xSZ6aSd0KMoqOVt4Eg6c-11" target="xSZ6aSd0KMoqOVt4Eg6c-7">
          <mxGeometry width="50" height="50" relative="1" as="geometry">
            <mxPoint x="390" y="-370" as="sourcePoint" />
            <mxPoint x="440" y="-420" as="targetPoint" />
          </mxGeometry>
        </mxCell>
        <mxCell id="xSZ6aSd0KMoqOVt4Eg6c-21" value="" style="endArrow=classic;html=1;rounded=0;exitX=0.5;exitY=1;exitDx=0;exitDy=0;entryX=0;entryY=0.5;entryDx=0;entryDy=0;" edge="1" parent="1" source="xSZ6aSd0KMoqOVt4Eg6c-9" target="xSZ6aSd0KMoqOVt4Eg6c-2">
          <mxGeometry width="50" height="50" relative="1" as="geometry">
            <mxPoint x="390" y="-440" as="sourcePoint" />
            <mxPoint x="440" y="-490" as="targetPoint" />
            <Array as="points">
              <mxPoint x="130" y="-602" />
            </Array>
          </mxGeometry>
        </mxCell>
        <mxCell id="xSZ6aSd0KMoqOVt4Eg6c-22" value="" style="endArrow=classic;html=1;rounded=0;exitX=1;exitY=0.5;exitDx=0;exitDy=0;entryX=0.455;entryY=-0.008;entryDx=0;entryDy=0;entryPerimeter=0;" edge="1" parent="1" source="xSZ6aSd0KMoqOVt4Eg6c-6" target="xSZ6aSd0KMoqOVt4Eg6c-7">
          <mxGeometry width="50" height="50" relative="1" as="geometry">
            <mxPoint x="400" y="-410" as="sourcePoint" />
            <mxPoint x="450" y="-460" as="targetPoint" />
            <Array as="points">
              <mxPoint x="301" y="-350" />
            </Array>
          </mxGeometry>
        </mxCell>
        <mxCell id="xSZ6aSd0KMoqOVt4Eg6c-23" value="" style="endArrow=classic;html=1;rounded=0;exitX=1;exitY=0.5;exitDx=0;exitDy=0;entryX=0.5;entryY=0;entryDx=0;entryDy=0;" edge="1" parent="1" source="xSZ6aSd0KMoqOVt4Eg6c-5">
          <mxGeometry width="50" height="50" relative="1" as="geometry">
            <mxPoint x="292.5" y="-350" as="sourcePoint" />
            <mxPoint x="337.5" y="-230" as="targetPoint" />
            <Array as="points">
              <mxPoint x="338" y="-410" />
            </Array>
          </mxGeometry>
        </mxCell>
        <mxCell id="xSZ6aSd0KMoqOVt4Eg6c-24" value="" style="endArrow=classic;html=1;rounded=0;exitX=1;exitY=0.5;exitDx=0;exitDy=0;entryX=0.5;entryY=0;entryDx=0;entryDy=0;" edge="1" parent="1" source="xSZ6aSd0KMoqOVt4Eg6c-4">
          <mxGeometry width="50" height="50" relative="1" as="geometry">
            <mxPoint x="310" y="-410" as="sourcePoint" />
            <mxPoint x="377.5" y="-230" as="targetPoint" />
            <Array as="points">
              <mxPoint x="378" y="-470" />
            </Array>
          </mxGeometry>
        </mxCell>
        <mxCell id="xSZ6aSd0KMoqOVt4Eg6c-25" value="" style="endArrow=classic;html=1;rounded=0;exitX=1;exitY=0.5;exitDx=0;exitDy=0;" edge="1" parent="1" source="xSZ6aSd0KMoqOVt4Eg6c-10">
          <mxGeometry width="50" height="50" relative="1" as="geometry">
            <mxPoint x="306" y="-470" as="sourcePoint" />
            <mxPoint x="410" y="-230" as="targetPoint" />
            <Array as="points">
              <mxPoint x="410" y="-538" />
            </Array>
          </mxGeometry>
        </mxCell>
        <mxCell id="xSZ6aSd0KMoqOVt4Eg6c-26" value="" style="endArrow=classic;html=1;rounded=0;exitX=1;exitY=0.5;exitDx=0;exitDy=0;entryX=0.813;entryY=-0.042;entryDx=0;entryDy=0;entryPerimeter=0;" edge="1" parent="1">
          <mxGeometry width="50" height="50" relative="1" as="geometry">
            <mxPoint x="270" y="-601" as="sourcePoint" />
            <mxPoint x="452.03" y="-228.99999999999997" as="targetPoint" />
            <Array as="points">
              <mxPoint x="450" y="-601" />
            </Array>
          </mxGeometry>
        </mxCell>
      </root>
    </mxGraphModel>
  </diagram>
</mxfile>
